<svg width="24" height="24" viewBox="0 0 24 24" fill="none" xmlns="http://www.w3.org/2000/svg">
<path d="M12 2C6.5 2 2 6.5 2 12C2 17.5 6.5 22 12 22C17.5 22 22 17.5 22 12C22 6.5 17.5 2 12 2ZM4.3 14C4.1 13.3 4 12.7 4 12C4 11.3 4.1 10.7 4.3 10H6.2C6 11.3 6 12.7 6.2 14H4.3ZM5.1 16H6.5C6.7 16.9 7 17.8 7.5 18.6C6.5 17.9 5.7 17 5.1 16ZM6.5 8H5.1C5.7 7 6.5 6.1 7.5 5.4C7 6.2 6.7 7.1 6.5 8ZM11 19.7C9.8 18.8 8.9 17.5 8.6 16H11V19.7ZM11 14H8.1C8 13.3 8 12.7 8 12C8 11.3 8 10.7 8.1 10H11V14ZM11 8H8.6C8.9 6.5 9.8 5.2 11 4.3V8ZM18.9 8H17.5C17.3 7.1 17 6.2 16.5 5.4C17.5 6.1 18.3 7 18.9 8ZM13 4.3C14.2 5.2 15.1 6.5 15.4 8H13V4.3ZM13 19.7V16H15.4C15.1 17.5 14.2 18.8 13 19.7ZM15.9 14H13V10H15.9C16 11.3 16 12.7 15.9 14ZM16.6 18.6C17 17.8 17.3 16.9 17.6 16H19C18.3 17 17.5 17.9 16.6 18.6ZM17.9 14C18.1 12.7 18.1 11.3 17.9 10H19.8C20.2 11.3 20.2 12.7 19.8 14H17.9Z" fill="#FFFDF8"/>
</svg>
