<svg width="24" height="24" viewBox="0 0 24 24" fill="none" xmlns="http://www.w3.org/2000/svg">
<path d="M12 22C17.5228 22 22 17.5228 22 12C22 6.47715 17.5228 2 12 2C6.47715 2 2 6.47715 2 12C2 17.5228 6.47715 22 12 22Z" fill="#EAB308" fill-opacity="0.4"/>
<path d="M12.0003 17.0001C11.869 17.0002 11.7389 16.9743 11.6176 16.9241C11.4962 16.8739 11.3859 16.8002 11.293 16.7074C11.2002 16.6145 11.1265 16.5042 11.0763 16.3829C11.0261 16.2615 11.0002 16.1314 11.0003 16.0001V12.0001C11.0003 11.7349 11.1057 11.4805 11.2932 11.293C11.4808 11.1054 11.7351 11.0001 12.0003 11.0001C12.2655 11.0001 12.5199 11.1054 12.7074 11.293C12.895 11.4805 13.0003 11.7349 13.0003 12.0001V16.0001C13.0004 16.1314 12.9746 16.2615 12.9244 16.3829C12.8741 16.5042 12.8005 16.6145 12.7076 16.7074C12.6147 16.8002 12.5045 16.8739 12.3831 16.9241C12.2617 16.9743 12.1317 17.0002 12.0003 17.0001V17.0001ZM12.0003 9.00008C11.8697 8.99848 11.7406 8.97127 11.6204 8.92C11.4992 8.86945 11.3875 8.79844 11.2903 8.71008C11.1972 8.61699 11.1235 8.50624 11.0737 8.38432C11.0239 8.2624 10.999 8.13177 11.0003 8.00008C10.9967 7.86891 11.0241 7.73874 11.0804 7.6202C11.131 7.49895 11.202 7.38729 11.2903 7.29008C11.3859 7.19961 11.498 7.12832 11.6204 7.08008C11.8637 6.97949 12.1369 6.97949 12.3802 7.08008C12.5025 7.12856 12.6145 7.19982 12.7102 7.29008C12.8928 7.48183 12.9964 7.73535 13.0003 8.00008C13.0016 8.13176 12.9766 8.26237 12.9268 8.38427C12.877 8.50618 12.8034 8.61693 12.7103 8.71004C12.6172 8.80315 12.5064 8.87677 12.3845 8.92657C12.2626 8.97637 12.132 9.00136 12.0003 9.00008Z" fill="#EAB308"/>
</svg>
